HIERARCHY
ROOT Hips
{
	OFFSET -0.001795 -0.223333 0.028219
	CHANNELS 6 Xposition Yposition Zposition Zrotation Yrotation Xrotation 
	JOINT LeftUpLeg
	{
		OFFSET 0.069520 -0.091406 -0.006815
		CHANNELS 3 Zrotation Yrotation Xrotation
		JOINT LeftLeg
		{
			OFFSET 0.034277 -0.375199 -0.004496
			CHANNELS 3 Zrotation Yrotation Xrotation
			JOINT LeftFoot
			{
				OFFSET -0.013596 -0.397961 -0.043693
				CHANNELS 3 Zrotation Yrotation Xrotation
				JOINT LeftToe
				{
					OFFSET 0.026358 -0.055791 0.119288
					CHANNELS 3 Zrotation Yrotation Xrotation
					End Site
					{
						OFFSET 0.000000 0.000000 0.000000
					}
				}
			}
		}
	}
	JOINT RightUpLeg
	{
		OFFSET -0.067670 -0.090522 -0.004320
		CHANNELS 3 Zrotation Yrotation Xrotation
		JOINT RightLeg
		{
			OFFSET -0.038290 -0.382569 -0.008850
			CHANNELS 3 Zrotation Yrotation Xrotation
			JOINT RightFoot
			{
				OFFSET 0.015774 -0.398415 -0.042312
				CHANNELS 3 Zrotation Yrotation Xrotation
				JOINT RightToe
				{
					OFFSET -0.025372 -0.048144 0.123348
					CHANNELS 3 Zrotation Yrotation Xrotation
					End Site
					{
						OFFSET 0.000000 0.000000 0.000000
					}
				}
			}
		}
	}
	JOINT Spine
	{
		OFFSET -0.002533 0.108963 -0.026696
		CHANNELS 3 Zrotation Yrotation Xrotation
		JOINT Spine1
		{
			OFFSET 0.005487 0.135180 0.001092
			CHANNELS 3 Zrotation Yrotation Xrotation
			JOINT Spine2
			{
				OFFSET 0.001457 0.052922 0.025425
				CHANNELS 3 Zrotation Yrotation Xrotation
				JOINT Neck
				{
					OFFSET -0.002778 0.213870 -0.042857
					CHANNELS 3 Zrotation Yrotation Xrotation
					JOINT Head
					{
						OFFSET 0.005152 0.064970 0.051349
						CHANNELS 3 Zrotation Yrotation Xrotation
						End Site
						{
							OFFSET 0.000000 0.000000 0.000000
						}
					}
				}
				JOINT LeftShoulder
				{
					OFFSET 0.078845 0.121749 -0.034090
					CHANNELS 3 Zrotation Yrotation Xrotation
					JOINT LeftArm
					{
						OFFSET 0.090977 0.030469 -0.008868
						CHANNELS 3 Zrotation Yrotation Xrotation
						JOINT LeftForeArm
						{
							OFFSET 0.259612 -0.012772 -0.027456
							CHANNELS 3 Zrotation Yrotation Xrotation
							JOINT LeftHand
							{
								OFFSET 0.249234 0.008986 -0.001171
								CHANNELS 3 Zrotation Yrotation Xrotation
								End Site
								{
									OFFSET 0.000000 0.000000 0.000000
								}
							}
						}
					}
				}
				JOINT RightShoulder
				{
					OFFSET -0.081759 0.118833 -0.038615
					CHANNELS 3 Zrotation Yrotation Xrotation
					JOINT RightArm
					{
						OFFSET -0.096012 0.032551 -0.009143
						CHANNELS 3 Zrotation Yrotation Xrotation
						JOINT RightForeArm
						{
							OFFSET -0.253742 -0.013329 -0.021401
							CHANNELS 3 Zrotation Yrotation Xrotation
							JOINT RightHand
							{
								OFFSET -0.255298 0.007772 -0.005559
								CHANNELS 3 Zrotation Yrotation Xrotation
								End Site
								{
									OFFSET 0.000000 0.000000 0.000000
								}
							}
						}
					}
				}
			}
		}
	}
}
MOTION
Frames: 16
Frame Time: 0.050000
0.000000 0.956152 0.000000 -0.999721 -7.650367 3.492981 5.096910 -0.086324 -1.254584 -0.928199 0.391559 -9.259447 -0.133198 4.177157 14.705973 0.000000 0.000000 0.000000 -2.072427 0.230703 -1.759787 0.463611 -0.251238 -6.632902 0.608432 -5.680820 14.075755 0.000000 0.000000 0.000000 3.641336 0.005077 -0.996532 -3.142797 1.434224 -2.342194 -1.336869 4.923353 4.553032 4.641295 -2.662501 -7.447640 0.000000 0.000000 0.000000 -18.191773 -0.186401 -1.921337 -46.142973 -6.509869 -2.963401 -3.043427 -11.885416 0.732648 0.000000 0.000000 0.000000 16.387235 -3.524076 -3.095832 54.585199 4.283042 -3.347788 2.190357 14.755356 0.741493 0.000000 0.000000 0.000000 
0.000165 0.954585 0.000100 -1.409908 -8.818101 3.765454 5.961734 -0.047543 -0.852499 -1.469816 0.445726 -9.917119 0.138628 4.463808 14.744030 0.000000 0.000000 0.000000 -1.696490 0.311993 -2.869313 0.270115 -0.204643 -5.366841 0.933167 -5.435511 14.467963 0.000000 0.000000 0.000000 4.158299 -0.026181 -0.688302 -3.113940 1.413280 -2.336395 -1.924518 6.422355 3.176632 6.169020 -3.753972 -6.888265 0.000000 0.000000 0.000000 -18.812319 -0.248952 -2.266422 -46.612632 -6.343205 -2.867452 -2.252239 -12.340239 0.657155 0.000000 0.000000 0.000000 16.892664 -4.531126 -3.496435 55.291054 2.907495 -3.887810 1.827162 15.655338 0.769122 0.000000 0.000000 0.000000 
0.000224 0.954031 -0.000024 -1.158893 -8.534143 3.811121 5.944995 -0.088396 -1.704023 -1.595053 0.379851 -7.768260 0.000575 3.926532 13.326354 0.000000 0.000000 0.000000 -1.738548 0.331196 -3.088670 -0.081460 -0.188361 -5.268788 0.915700 -5.223884 13.957247 0.000000 0.000000 0.000000 4.261305 -0.043108 -0.509293 -2.679295 1.186806 -3.565425 -2.734374 6.756084 3.456342 7.212500 -4.699261 -5.737524 0.000000 0.000000 0.000000 -17.851274 -0.778400 -1.991801 -48.167133 -5.538034 -3.294549 -1.140222 -12.379442 0.534111 0.000000 0.000000 0.000000 17.430075 -4.099570 -3.199582 55.823772 2.086521 -4.347105 0.386776 15.183360 0.597902 0.000000 0.000000 0.000000 
0.000177 0.953850 -0.000065 -1.385173 -8.522731 4.186841 6.865890 -0.086341 -1.994079 -2.321066 0.446181 -8.738375 -0.513676 3.447346 14.686647 0.000000 0.000000 0.000000 -1.540208 0.381325 -3.717194 -0.087646 -0.187120 -5.233056 0.977193 -5.611409 15.211198 0.000000 0.000000 0.000000 4.264044 -0.034488 -0.676326 -2.871090 1.274793 -3.413245 -2.255361 6.311572 2.672373 7.627017 -5.055200 -5.458406 0.000000 0.000000 0.000000 -17.648685 0.091990 -2.315814 -49.118546 -5.129489 -3.479635 -1.164099 -13.628304 0.595493 0.000000 0.000000 0.000000 17.102327 -4.246498 -3.369075 55.832084 1.496280 -4.518908 0.736984 15.523773 0.636240 0.000000 0.000000 0.000000 
0.000139 0.954098 -0.000076 -1.252989 -8.754411 4.187632 6.469839 -0.095463 -2.121294 -1.856287 0.412507 -8.331933 -0.588247 3.143351 14.125357 0.000000 0.000000 0.000000 -1.571347 0.406878 -4.005904 -0.209372 -0.182228 -5.253667 0.952254 -5.718178 15.264673 0.000000 0.000000 0.000000 4.232277 -0.034133 -0.669575 -2.801171 1.238617 -3.527530 -2.260668 6.832881 2.538097 7.636161 -4.922707 -6.081144 0.000000 0.000000 0.000000 -17.608558 0.346454 -2.532475 -49.297195 -5.148882 -3.459146 -1.033805 -15.470092 0.645744 0.000000 0.000000 0.000000 16.487636 -4.828227 -3.522044 56.416253 1.043226 -4.747943 1.049610 16.122108 0.710947 0.000000 0.000000 0.000000 
-0.000004 0.954261 -0.000065 -1.216541 -8.815732 4.410094 6.608244 -0.105696 -2.426965 -1.815916 0.408664 -8.268748 -0.669499 3.023749 14.215703 0.000000 0.000000 0.000000 -1.671287 0.454420 -4.528952 -0.242766 -0.172513 -5.008507 1.075796 -5.496496 15.218902 0.000000 0.000000 0.000000 4.132200 -0.039346 -0.627945 -2.720884 1.194123 -3.854339 -2.076773 6.975574 2.517809 7.879825 -5.027019 -6.437223 0.000000 0.000000 0.000000 -17.802312 0.989599 -2.902598 -49.505813 -5.024821 -3.518362 -1.304494 -18.292241 0.799534 0.000000 0.000000 0.000000 16.182526 -5.326573 -3.732745 57.068609 1.194837 -4.711588 1.546461 16.775989 0.808503 0.000000 0.000000 0.000000 
-0.000222 0.954011 -0.000101 -1.182632 -8.960562 4.425311 6.622559 -0.105164 -2.483630 -1.806773 0.416011 -8.500271 -0.601210 3.209839 14.587706 0.000000 0.000000 0.000000 -1.809946 0.467704 -4.659885 -0.254244 -0.168570 -4.915385 1.338426 -4.946728 14.940929 0.000000 0.000000 0.000000 4.320294 -0.050915 -0.515567 -2.732470 1.193256 -4.030471 -2.274150 7.103763 2.448610 7.811607 -4.842983 -7.103809 0.000000 0.000000 0.000000 -17.331977 1.795012 -3.257314 -49.183136 -4.731126 -3.610388 -2.371492 -21.887087 1.146902 0.000000 0.000000 0.000000 15.665906 -5.338900 -3.658926 57.945874 0.999662 -4.858056 2.581948 18.566915 1.058640 0.000000 0.000000 0.000000 
-0.000561 0.954019 -0.000270 -1.082418 -8.502775 4.081919 6.655135 -0.096883 -2.226313 -2.233752 0.433078 -8.397714 -0.453060 3.453078 14.335308 0.000000 0.000000 0.000000 -2.158630 0.442565 -4.325673 -0.049156 -0.169934 -4.661161 1.245571 -4.689917 14.099321 0.000000 0.000000 0.000000 4.535790 -0.060894 -0.376415 -2.650498 1.157381 -4.286515 -2.704589 6.962982 2.821339 8.333831 -5.077132 -7.842949 0.000000 0.000000 0.000000 -16.896237 1.313244 -2.971050 -48.143737 -5.407178 -3.299704 -0.950310 -27.760255 1.092632 0.000000 0.000000 0.000000 15.491255 -5.620808 -3.738272 58.264639 0.822441 -5.005079 5.100919 20.787643 1.630153 0.000000 0.000000 0.000000 
-0.001069 0.954076 -0.000621 -1.059478 -8.194368 3.836279 6.549271 -0.092210 -2.021764 -2.212614 0.434533 -8.584381 -0.639422 3.384945 15.029805 0.000000 0.000000 0.000000 -2.327577 0.403193 -3.825642 0.040840 -0.180123 -4.826971 1.533237 -4.039521 13.911981 0.000000 0.000000 0.000000 4.706751 -0.055181 -0.425062 -2.391724 1.052980 -4.096933 -3.123002 7.008501 2.833803 8.133774 -4.799297 -8.457305 0.000000 0.000000 0.000000 -15.614065 2.276615 -3.292796 -46.264644 -7.209609 -2.504857 0.969551 -38.173892 0.773507 0.000000 0.000000 0.000000 14.837931 -5.644014 -3.614645 58.655781 0.800675 -5.032875 7.977525 24.671486 2.590331 0.000000 0.000000 0.000000 
-0.001832 0.954766 -0.001156 -0.891122 -7.639247 3.299242 6.264028 -0.073205 -1.400505 -1.961542 0.433812 -9.164081 -0.926459 3.069677 15.222400 0.000000 0.000000 0.000000 -2.268320 0.335656 -3.038055 -0.047723 -0.182121 -4.976918 1.295466 -4.197727 13.454527 0.000000 0.000000 0.000000 4.764383 -0.021730 -0.728730 -2.469177 1.101628 -3.658679 -3.308023 7.406386 2.859174 8.473907 -5.093929 -7.997399 0.000000 0.000000 0.000000 -13.399870 1.992275 -2.901839 -41.779438 -11.554278 -0.827586 9.382658 -51.048335 -3.196860 0.000000 0.000000 0.000000 14.055986 -5.356640 -3.256027 58.292513 0.615022 -5.071005 11.731970 27.721270 3.900236 0.000000 0.000000 0.000000 
-0.002603 0.955240 -0.001681 -0.615663 -7.007885 2.999830 5.835787 -0.090835 -1.581422 -1.902899 0.404794 -8.370569 -0.956665 3.016599 14.881380 0.000000 0.000000 0.000000 -2.385444 0.307790 -2.686676 -0.127486 -0.176301 -4.884511 0.959795 -4.495816 12.901545 0.000000 0.000000 0.000000 4.871902 -0.023117 -0.677046 -2.172688 0.977484 -3.696818 -4.065069 7.458176 2.582354 8.466915 -5.448122 -6.135586 0.000000 0.000000 0.000000 -11.156465 0.716820 -2.031470 -34.615945 -15.866969 0.416562 33.551708 -61.030077 -18.770757 0.000000 0.000000 0.000000 13.381231 -4.750494 -2.804463 57.218109 0.328874 -5.082013 15.571865 31.907161 5.722511 0.000000 0.000000 0.000000 
-0.003279 0.956103 -0.002081 -0.587474 -6.444209 2.708088 5.426418 -0.089648 -1.368080 -1.129080 0.344230 -7.791017 -1.834824 1.587471 14.497989 0.000000 0.000000 0.000000 -1.923196 0.281138 -2.519642 -0.487821 -0.152280 -4.698854 0.923287 -4.107734 11.985837 0.000000 0.000000 0.000000 4.731962 -0.008746 -0.789658 -2.164015 0.990934 -2.878608 -3.791282 6.983915 1.641754 7.798430 -5.080018 -5.446713 0.000000 0.000000 0.000000 -8.078956 -0.268070 -1.119020 -26.142506 -21.829669 1.275426 67.529884 -55.468889 -37.356049 0.000000 0.000000 0.000000 12.468714 -4.106464 -2.458645 55.129139 0.516245 -4.727278 22.407218 35.449293 8.623238 0.000000 0.000000 0.000000 
-0.003680 0.956605 -0.002193 -0.459217 -5.931176 2.307965 5.017635 -0.105136 -1.586694 -0.848269 0.283663 -6.465340 -1.478696 1.886988 13.394243 0.000000 0.000000 0.000000 -1.741629 0.239748 -2.096478 -0.558004 -0.149799 -4.723193 1.045288 -4.054174 12.581088 0.000000 0.000000 0.000000 4.139673 -0.012017 -0.641380 -1.768031 0.815946 -3.160721 -3.325545 6.121079 2.056724 6.064363 -4.098955 -4.018383 0.000000 0.000000 0.000000 -3.797495 -1.364831 -0.036790 -14.089618 -27.447504 0.518027 78.307560 -37.270771 -29.648819 0.000000 0.000000 0.000000 12.160393 -2.850020 -1.932860 52.890009 1.286914 -4.283120 28.759551 38.129813 11.560552 0.000000 0.000000 0.000000 
-0.003837 0.957436 -0.001906 -0.447056 -5.511914 2.133055 4.610145 -0.110927 -1.567273 -0.486003 0.245835 -6.068358 -1.692959 1.454044 12.960605 0.000000 0.000000 0.000000 -1.803371 0.206638 -1.693755 -0.425965 -0.155753 -4.690893 0.928175 -3.921748 11.872049 0.000000 0.000000 0.000000 3.203537 -0.028609 -0.281669 -1.130086 0.536496 -3.450780 -1.971125 4.862578 2.184533 3.872300 -2.474053 -4.153658 0.000000 0.000000 0.000000 1.473359 -1.103916 0.521561 -2.018961 -31.517038 -1.426441 76.789443 -20.567665 -15.659661 0.000000 0.000000 0.000000 11.405128 -1.679343 -1.510464 51.571738 2.689285 -3.615834 34.067561 40.553009 14.257806 0.000000 0.000000 0.000000 
-0.003888 0.958285 -0.001254 -0.499527 -6.071726 2.261702 4.545719 -0.105442 -1.514083 -0.373243 0.230458 -5.819780 -1.368951 1.870648 12.829334 0.000000 0.000000 0.000000 -1.389951 0.238811 -2.182046 -0.595137 -0.118636 -4.002872 0.774281 -4.266358 11.803993 0.000000 0.000000 0.000000 2.339023 -0.016718 -0.330509 -0.518574 0.260868 -3.285423 -1.064842 4.450093 1.621873 2.598299 -1.825879 -1.897206 0.000000 0.000000 0.000000 7.138222 -0.465953 0.896601 11.065689 -32.914635 -4.071884 68.456709 -7.041185 -4.509535 0.000000 0.000000 0.000000 11.316759 -0.678996 -1.181438 50.309829 3.031622 -3.333467 37.983038 43.084947 16.719437 0.000000 0.000000 0.000000 
-0.003930 0.959481 -0.000603 -0.518314 -6.378970 2.160069 4.299911 -0.104466 -1.515095 -0.054580 0.182756 -5.139343 -1.285242 1.921004 12.673422 0.000000 0.000000 0.000000 -1.087994 0.260867 -2.509965 -0.770582 -0.063248 -2.952205 0.700508 -4.307835 11.457164 0.000000 0.000000 0.000000 1.247160 -0.022897 0.051790 0.609090 -0.237908 -3.323752 -0.278053 4.309832 1.222148 1.121134 -0.693058 -1.900609 0.000000 0.000000 0.000000 12.534262 0.215301 1.239652 19.253019 -31.287746 -5.298672 60.221891 0.313861 0.229519 0.000000 0.000000 0.000000 10.780185 -0.316498 -1.041774 50.117098 3.831445 -2.952450 40.055277 45.873732 18.795866 0.000000 0.000000 0.000000 
